# xmcd
#
# Track frame offsets: 
#        187
#        23707
#        40892
#        63700
#        85987
#        111177
#        133947
#        156617
#        178197
#        184042
#        207665
#        232550
#
# Disc length: 3534 seconds
#
# Revision: 3
# Processed by: cddbd v1.5.2PL0 Copyright (c) Steve Scherf et al.
# Submitted via: ExactAudioCopy v0.99pb4
#
DISCID=ab0dcc0c
DTITLE=Marion Meadows - Keep It Right There
DYEAR=1992
DGENRE=Jazz
TTITLE0=Wishing
TTITLE1=In Effect
TTITLE2=Love Was Never
TTITLE3=Morocco
TTITLE4=Come Back To Me
TTITLE5=Color of Love
TTITLE6=Keep It Right There
TTITLE7=Oh Yes
TTITLE8=Heaven
TTITLE9=Good Lovin'
TTITLE10=When Will I Know
TTITLE11=Passion
EXTD=YEAR: 1992
EXTT0=
EXTT1=
EXTT2=
EXTT3=
EXTT4=
EXTT5=
EXTT6=
EXTT7=
EXTT8=
EXTT9=
EXTT10=
EXTT11=
PLAYORDER=
